<?xml version="1.0"?>
<svg xmlns="http://www.w3.org/2000/svg" xmlns:xlink="http://www.w3.org/1999/xlink" xmlns:svgjs="http://svgjs.com/svgjs" version="1.1" width="512" height="512" x="0" y="0" viewBox="0 0 512 512" style="enable-background:new 0 0 512 512" xml:space="preserve" class=""><g><g xmlns="http://www.w3.org/2000/svg" id="Alcohol_Gel" data-name="Alcohol Gel"><g id="Outline"><path d="M224,162.194V72c0-10.806-13.641-7.472-16-8V48h62.879l24.155,6.9c33.2,9.49,50.991-34.071,35.164-38.593l-56-16C272.543-.165,281.043,0,136,0a8,8,0,0,0-8,8V64c-2.168.485-16-2.7-16,8v96a8,8,0,0,0,16,0V152h80c1,9.584-3.243,21.108,5.8,23.692A69.5,69.5,0,0,1,264,242.24V304H248a80.14,80.14,0,0,0-56-76.317V176c0-10.578-16-10.591-16,0v48.4a80.018,80.018,0,0,0-16,0V176c0-10.578-16-10.591-16,0v51.683A80.14,80.14,0,0,0,88,304H72V242.24a68.448,68.448,0,0,1,5.965-28.1,8,8,0,0,0-14.61-6.526A84.368,84.368,0,0,0,56,242.24V480a32.036,32.036,0,0,0,32,32H248a32.036,32.036,0,0,0,32-32V242.24A85.618,85.618,0,0,0,224,162.194ZM208,16h62.879L318.96,29.737a16.149,16.149,0,0,1-19.531,9.78C264.473,29.671,287.17,32.012,208,32ZM144,136H128V80h16Zm0-120h48V64H144Zm32,120H160V80h16Zm32,0H192V80h16ZM104,304a64,64,0,0,1,128,0v64a64,64,0,0,1-128,0ZM264,480a16.019,16.019,0,0,1-16,16H88a16.019,16.019,0,0,1-16-16V320H88v48a80,80,0,0,0,160,0V320h16Z" fill="#7125c2" data-original="#000000" style="" class=""/><path d="M448,80H256a8,8,0,0,0-8,8v64a8,8,0,0,0,8,8c10.806,0,7.472-13.641,8-16H439.306l-4.618,55.446A8,8,0,0,0,442,208.083c.226.019.45.027.673.027a8,8,0,0,0,7.963-7.336C457.3,124.032,455.989,144.72,456,88A8,8,0,0,0,448,80Zm-8,48H264V96h16c.485,2.168-2.7,16,8,16,10.806,0,7.472-13.641,8-16h16c.485,2.168-2.7,16,8,16,10.806,0,7.472-13.641,8-16h16c.485,2.168-2.7,16,8,16,10.806,0,7.472-13.641,8-16h16c.485,2.168-2.7,16,8,16,10.806,0,7.472-13.641,8-16h16c.485,2.168-2.7,16,8,16,10.806,0,7.472-13.641,8-16h16Z" fill="#7125c2" data-original="#000000" style="" class=""/><path d="M438,255.917a8.015,8.015,0,0,0-8.636,7.309L416.639,416H304c-10.576,0-10.592,16,0,16H416v48a16.019,16.019,0,0,1-16,16H304c-10.576,0-10.592,16,0,16h96a32.036,32.036,0,0,0,32-32V424.33l13.312-159.776A8,8,0,0,0,438,255.917Z" fill="#7125c2" data-original="#000000" style="" class=""/><path d="M144,360v16a8,8,0,0,0,8,8h32a8,8,0,0,0,8-8V360h16a8,8,0,0,0,8-8V320a8,8,0,0,0-8-8H192V296a8,8,0,0,0-8-8H152a8,8,0,0,0-8,8v16H128a8,8,0,0,0-8,8v32a8,8,0,0,0,8,8Zm-8-32h16a8,8,0,0,0,8-8V304h16v16a8,8,0,0,0,8,8h16v16H184a8,8,0,0,0-8,8v16H160V352a8,8,0,0,0-8-8H136Z" fill="#7125c2" data-original="#000000" style="" class=""/><path d="M368,176H336a8,8,0,0,0-8,8v16H312a8,8,0,0,0-8,8v32a8,8,0,0,0,8,8h16v16a8,8,0,0,0,8,8h32a8,8,0,0,0,8-8V248h16a8,8,0,0,0,8-8V208a8,8,0,0,0-8-8H376V184A8,8,0,0,0,368,176Zm16,40v16H368a8,8,0,0,0-8,8v16H344V240a8,8,0,0,0-8-8H320V216h16a8,8,0,0,0,8-8V192h16v16a8,8,0,0,0,8,8Z" fill="#7125c2" data-original="#000000" style="" class=""/><circle cx="88" cy="184" r="8" fill="#7125c2" data-original="#000000" style="" class=""/><circle cx="440" cy="232" r="8" fill="#7125c2" data-original="#000000" style="" class=""/></g></g></g></svg>
