<svg id="Capa_1" enable-background="new 0 0 512 512" height="512" viewBox="0 0 512 512" width="512" xmlns="http://www.w3.org/2000/svg" xmlns:xlink="http://www.w3.org/1999/xlink"><linearGradient id="SVGID_1_" gradientUnits="userSpaceOnUse" x1="256" x2="256" y1="512" y2="0"><stop offset="0" stop-color="#fd3a84"/><stop offset="1" stop-color="#ffa68d"/></linearGradient><g><g><path d="m256 61c-40.559 0-79.576 12.528-112.837 36.23-7.561 5.389-8.448 16.277-1.901 22.822l250.686 250.686c6.578 6.579 17.458 5.627 22.822-1.901 23.702-33.259 36.23-72.278 36.23-112.837 0-107.523-87.477-195-195-195zm143.945 275.311-224.255-224.256c24.555-13.822 51.995-21.055 80.31-21.055 90.981 0 165 74.019 165 165 0 28.316-7.233 55.756-21.055 80.311zm-279.892-195.049c-6.564-6.566-17.45-5.637-22.822 1.901-23.703 33.261-36.231 72.279-36.231 112.837 0 107.523 87.477 195 195 195 40.558 0 79.576-12.528 112.837-36.23 7.56-5.388 8.448-16.276 1.901-22.822zm135.947 279.738c-90.981 0-165-74.019-165-165 0-28.315 7.233-55.755 21.055-80.31l224.255 224.255c-24.555 13.822-51.995 21.055-80.31 21.055zm181.026-346.092c-48.328-48.305-112.617-74.908-181.026-74.908-68.454 0-132.767 26.626-181.092 74.974-48.305 48.328-74.908 112.617-74.908 181.026 0 68.454 26.626 132.768 74.974 181.092 48.328 48.305 112.617 74.908 181.026 74.908 68.454 0 132.767-26.626 181.092-74.974 48.305-48.328 74.908-112.617 74.908-181.026 0-68.454-26.626-132.768-74.974-181.092zm-181.026 407.092c-124.617 0-226-101.383-226-226s101.383-226 226-226 226 101.383 226 226-101.383 226-226 226z" fill="url(#SVGID_1_)"/></g></g></svg>