<?xml version="1.0"?>
<svg xmlns="http://www.w3.org/2000/svg" xmlns:xlink="http://www.w3.org/1999/xlink" xmlns:svgjs="http://svgjs.com/svgjs" version="1.1" width="512" height="512" x="0" y="0" viewBox="0 0 512 512" style="enable-background:new 0 0 512 512" xml:space="preserve"><g><g xmlns="http://www.w3.org/2000/svg"><path d="M438.472,106.241l-95.7-65.795A47.793,47.793,0,0,0,315.576,32H258.357A38.267,38.267,0,0,0,227.4,16H203.272a37.989,37.989,0,0,0-25.023,9.4L150.161,49.979,160.7,62.021l28.088-24.578A22,22,0,0,1,203.272,32H227.4A22.13,22.13,0,0,1,247.93,46.1L278.235,124.9l-90.574,60.382L112.906,232H112v.566l-40,25V154.151a32,32,0,0,1,10.928-24.083l66.34-58.047L138.732,59.979l-66.34,58.048A48,48,0,0,0,56,154.151V272a8,8,0,0,0,12.24,6.784l3.76-2.35V290a38.058,38.058,0,0,0,32.864,37.654l-.522,14.622a37.826,37.826,0,0,0,6.072,22l.072.109,21.505,32.071.2-.135a87.955,87.955,0,0,0,22.646,53.893l33.291,36.621A28.057,28.057,0,0,0,208.847,496H264V480H208.847a12.025,12.025,0,0,1-8.879-3.928l-33.291-36.62a72.258,72.258,0,0,1-7.78-86.593l6.176-9.881L256,320.246l90.927,22.732,6.176,9.881a72.258,72.258,0,0,1-7.78,86.593l-33.292,36.62A12.021,12.021,0,0,1,303.153,480H280v16h23.153a28.057,28.057,0,0,0,20.718-9.165l33.291-36.621a87.91,87.91,0,0,0,22.517-52.083l21.907-33.855a37.827,37.827,0,0,0,6.072-22l-.522-14.621A38.058,38.058,0,0,0,440,290V262a37.932,37.932,0,0,0-7.753-23.025A37.92,37.92,0,0,0,444.9,217.962l5.2-24.286-15.645-3.352-5.2,24.285a22.036,22.036,0,0,1-9.5,13.788l-.018-.009-.017.032A21.9,21.9,0,0,1,407.748,232h-10.6L364.54,160.255a38.2,38.2,0,0,0-21.813-20.062l-48.069-17.167L265.8,48h49.774a31.87,31.87,0,0,1,18.13,5.63l95.7,65.8a31.9,31.9,0,0,1,13.16,33.074l-4.676,21.824,15.645,3.352,4.676-21.823A47.849,47.849,0,0,0,438.472,106.241ZM88,290V266.434l24-15V312h-2A22.025,22.025,0,0,1,88,290Zm57.329,54.38a87.289,87.289,0,0,0-11.059,26.745l-10.456-15.592a21.9,21.9,0,0,1-3.482-12.686l.5-13.9,27.316,10.926Zm242.823,11.2-10.327,15.961a87.276,87.276,0,0,0-11.154-27.164l-2.816-4.506,27.316-10.926.5,13.9A21.888,21.888,0,0,1,388.152,355.583ZM407.748,248a37.537,37.537,0,0,0,10.01-1.36A21.957,21.957,0,0,1,424,262v28a22.025,22.025,0,0,1-22,22h-2V248Zm-57.774-81.124L384,241.733v72.851l-32.569,13.027L257.94,304.239a7.985,7.985,0,0,0-3.88,0l-93.491,23.372L128,314.584v-73.15l68.24-42.65c.067-.042.133-.084.2-.128l91.539-61.026,49.368,17.631A22.116,22.116,0,0,1,349.974,166.876Z" fill="#7125c2" data-original="#000000" style=""/><rect x="184" y="240" width="24" height="40" rx="10" ry="10" fill="#7125c2" data-original="#000000" style=""/><rect x="304" y="240" width="24" height="40" rx="10" ry="10" fill="#7125c2" data-original="#000000" style=""/><path d="M309.8,383.692l4.4-15.384-56-16a7.991,7.991,0,0,0-4.4,0l-56,16,4.4,15.384L256,368.32Z" fill="#7125c2" data-original="#000000" style=""/><path d="M202.2,423.692,256,408.32l53.8,15.372,4.4-15.384-56-16a7.991,7.991,0,0,0-4.4,0l-56,16Z" fill="#7125c2" data-original="#000000" style=""/><rect x="232" y="440" width="48" height="16" fill="#7125c2" data-original="#000000" style=""/></g></g></svg>
