<?xml version="1.0"?>
<svg xmlns="http://www.w3.org/2000/svg" xmlns:xlink="http://www.w3.org/1999/xlink" xmlns:svgjs="http://svgjs.com/svgjs" version="1.1" width="512" height="512" x="0" y="0" viewBox="0 0 128 128" style="enable-background:new 0 0 512 512" xml:space="preserve" class=""><g><g xmlns="http://www.w3.org/2000/svg"><path d="M44.917,58.574A19.083,19.083,0,1,0,64,39.491,19.105,19.105,0,0,0,44.917,58.574Zm34.666,0A15.583,15.583,0,1,1,64,42.991,15.6,15.6,0,0,1,79.583,58.574Z" fill="#7125c2" data-original="#000000" style="" class=""/><path d="M57.708,58.4A1.75,1.75,0,1,0,55.167,60.8l5.175,5.466a1.749,1.749,0,0,0,1.27.547c.031,0,.061,0,.091,0a1.747,1.747,0,0,0,1.3-.683l9.95-12.985a1.75,1.75,0,1,0-2.777-2.129l-8.7,11.356Z" fill="#7125c2" data-original="#000000" style="" class=""/><path d="M109.051,30.521a1.753,1.753,0,0,0-1.18-1.511L64.564,14.244a1.743,1.743,0,0,0-1.128,0L20.129,29.01a1.753,1.753,0,0,0-1.18,1.511,101.274,101.274,0,0,0,3.667,32.367C27.1,79.08,37.787,101.034,63.222,113.667a1.745,1.745,0,0,0,1.556,0c25.435-12.633,36.12-34.587,40.606-50.779A101.274,101.274,0,0,0,109.051,30.521ZM64,110.14c-42.016-21.463-41.937-70.161-41.622-78.2L64,17.75l41.623,14.191C105.944,39.98,106.059,88.656,64,110.14Z" fill="#7125c2" data-original="#000000" style="" class=""/><path d="M101,34.062,64.564,21.64a1.743,1.743,0,0,0-1.128,0L27,34.062a1.75,1.75,0,0,0-1.186,1.672A99.582,99.582,0,0,0,29.484,61.46c5.664,20.054,16.99,34.944,33.662,44.257a1.754,1.754,0,0,0,1.708,0c16.672-9.313,28-24.2,33.662-44.257a99.571,99.571,0,0,0,3.666-25.726A1.751,1.751,0,0,0,101,34.062Zm-5.85,26.447C89.843,79.29,79.366,93.3,64,102.176,48.634,93.3,38.157,79.29,32.854,60.509A97.491,97.491,0,0,1,29.34,36.963L64,25.145,98.66,36.963A97.478,97.478,0,0,1,95.146,60.509Z" fill="#7125c2" data-original="#000000" style="" class=""/></g></g></svg>
