<?xml version="1.0"?>
<svg xmlns="http://www.w3.org/2000/svg" xmlns:xlink="http://www.w3.org/1999/xlink" xmlns:svgjs="http://svgjs.com/svgjs" version="1.1" width="512" height="512" x="0" y="0" viewBox="0 0 512.004 512.004" style="enable-background:new 0 0 512 512" xml:space="preserve" class=""><g><g xmlns="http://www.w3.org/2000/svg"><path d="m199.246 380.888c-3.641-30.84-21.647-56.827-46.833-71.636 14.484-13.179 23.589-32.171 23.589-53.25v-16c0-39.701-32.299-72-72-72s-72 32.299-72 72v16c0 20.97 9.016 39.87 23.37 53.04-25.538 14.868-43.718 41.205-47.195 72.5l-8.077 72.693c-1.052 9.467 6.364 17.767 15.902 17.767h176c9.572 0 17.012-8.363 15.89-17.876zm-135.244-140.886c0-22.056 17.944-40 40-40s40 17.944 40 40v16c0 22.056-17.944 40-40 40s-40-17.944-40-40zm-30.124 200 6.103-54.925c3.615-32.538 31.029-57.075 63.767-57.075 32.513 0 59.906 24.349 63.718 56.638l6.536 55.362z" fill="#7137c2" data-original="#000000" style=""/><path d="m511.892 454.126-8.646-73.238c-3.641-30.84-21.647-56.827-46.833-71.636 14.484-13.179 23.589-32.171 23.589-53.25v-16c0-39.701-32.299-72-72-72s-72 32.299-72 72v16c0 20.97 9.016 39.87 23.37 53.04-25.538 14.868-43.718 41.205-47.195 72.5l-8.077 72.692c-1.052 9.467 6.364 17.767 15.902 17.767h176c9.571.001 17.012-8.362 15.89-17.875zm-143.89-214.124c0-22.056 17.944-40 40-40s40 17.944 40 40v16c0 22.056-17.944 40-40 40s-40-17.944-40-40zm-30.124 200 6.103-54.925c3.615-32.538 31.029-57.075 63.767-57.075 32.513 0 59.906 24.349 63.718 56.638l6.536 55.362z" fill="#7137c2" data-original="#000000" style=""/><path d="m98.23 79.886c-2.976 5.034-2.971 11.216.011 16.249 1.474 2.493.545 1.282 34.443 35.18 6.247 6.248 16.379 6.249 22.627 0 6.249-6.248 6.249-16.379 0-22.627l-4.687-4.687h210.75l-4.686 4.687c-10.109 10.109-2.811 27.313 11.313 27.313 4.095 0 8.189-1.562 11.313-4.687 35.367-35.367 32.954-32.686 34.409-35.117 3.29-5.493 3.011-12.528-.934-17.782-1.088-1.448 2.151 1.899-33.475-33.728-6.248-6.249-16.379-6.249-22.627 0-6.249 6.248-6.249 16.379 0 22.627l4.686 4.687h-210.75l4.686-4.686c6.249-6.249 6.249-16.379 0-22.627-6.249-6.249-16.38-6.248-22.627 0-33.971 33.973-32.978 32.698-34.452 35.198z" fill="#7137c2" data-original="#000000" style=""/></g></g></svg>
