<?xml version="1.0"?>
<svg xmlns="http://www.w3.org/2000/svg" xmlns:xlink="http://www.w3.org/1999/xlink" xmlns:svgjs="http://svgjs.com/svgjs" version="1.1" width="512" height="512" x="0" y="0" viewBox="0 0 512 512" style="enable-background:new 0 0 512 512" xml:space="preserve" class=""><g><path xmlns="http://www.w3.org/2000/svg" d="m492 352c11.046 0 20-8.954 20-20v-76c0-68.38-26.629-132.667-74.98-181.02-48.353-48.351-112.64-74.98-181.02-74.98s-132.667 26.629-181.02 74.98c-48.351 48.353-74.98 112.64-74.98 181.02v176c0 44.112 35.888 80 80 80h352c44.112 0 80-35.888 80-80 0-11.046-8.954-20-20-20s-20 8.954-20 20c0 22.056-17.944 40-40 40h-156v-236h195.066c.608 6.588.934 13.256.934 20v76c0 11.046 8.954 20 20 20zm-412 120c-10.387 0-19.86-3.982-26.979-10.497.893-45.464 42.291-86.503 87.706-86.503 13.772 0 26.886 3.218 38.977 9.566 9.78 5.134 21.871 1.368 27.004-8.412 5.134-9.78 1.368-21.87-8.412-27.004-2.229-1.17-4.495-2.27-6.792-3.299 7.241-10.481 11.496-23.176 11.496-36.851 0-35.841-29.159-65-65-65s-65 29.159-65 65c0 14.68 4.897 28.234 13.135 39.127-12.746 6.334-24.624 14.826-34.978 25.216-4.01 4.023-7.73 8.279-11.158 12.721v-130.064c0-112.359 86.24-204.94 196-215.066v431.066zm58-138c-13.785 0-25-11.215-25-25s11.215-25 25-25 25 11.215 25 25-11.215 25-25 25zm138-138v-155.066c89.43 8.25 163.237 71.237 187.513 155.066z" fill="#7137c2" data-original="#000000" style="" class=""/></g></svg>
